<?xml version="1.0" standalone="no"?>
<!DOCTYPE svg PUBLIC "-//W3C//DTD SVG 20010904//EN"
 "http://www.w3.org/TR/2001/REC-SVG-20010904/DTD/svg10.dtd">
<svg version="1.0" xmlns="http://www.w3.org/2000/svg"
 width="222.000000pt" height="227.000000pt" viewBox="0 0 222.000000 227.000000"
 preserveAspectRatio="xMidYMid meet">

<g transform="translate(0.000000,227.000000) scale(0.100000,-0.100000)"
fill="#000000" stroke="none">
<path d="M199 1387 c-145 -54 -220 -196 -178 -336 22 -75 97 -154 167 -175 19
-7 22 -4 22 23 0 27 -4 31 -26 31 -32 0 -115 83 -89 88 19 4 45 -15 45 -34 0
-22 63 -18 77 5 10 16 7 20 -27 30 -60 18 -83 54 -76 121 14 145 22 163 67
139 30 -15 168 -15 198 0 35 19 51 7 51 -38 0 -22 5 -43 11 -47 7 -4 10 -29 7
-65 -5 -68 -23 -94 -79 -111 -32 -9 -37 -14 -29 -29 6 -10 10 -41 10 -69 0
-49 1 -51 23 -44 45 14 110 70 139 121 98 174 -16 387 -215 399 -37 3 -76 -1
-98 -9z"/>
<path d="M747 1295 c-64 -33 -93 -110 -85 -225 6 -81 32 -130 82 -154 39 -19
138 -21 185 -5 l31 11 0 104 0 104 -70 0 -70 0 0 -35 c0 -32 2 -35 30 -35 28
0 30 -2 30 -40 l0 -40 -43 0 c-31 0 -49 6 -61 19 -43 47 -40 178 5 214 18 15
36 18 86 15 63 -3 64 -3 72 27 6 23 5 33 -7 43 -22 17 -150 16 -185 -3z"/>
<path d="M1350 1100 l0 -200 40 0 40 0 0 85 0 85 60 0 60 0 0 -85 0 -85 40 0
40 0 0 200 0 200 -40 0 -40 0 0 -75 0 -75 -60 0 -60 0 0 75 0 75 -40 0 -40 0
0 -200z"/>
<path d="M1960 1100 l0 -200 30 0 c17 0 30 4 30 10 0 6 9 6 26 0 29 -11 94
-13 119 -4 29 12 45 60 45 139 0 72 -2 78 -31 107 -28 29 -34 30 -85 25 l-54
-6 0 65 0 64 -40 0 -40 0 0 -200z m160 -9 c15 -30 12 -97 -6 -115 -17 -18 -20
-18 -51 -10 -21 6 -23 12 -23 68 0 35 3 66 7 69 14 15 63 7 73 -12z"/>
<path d="M1016 1274 c-30 -30 -10 -74 34 -74 40 0 58 32 35 66 -18 28 -46 31
-69 8z"/>
<path d="M1160 1211 c0 -31 -4 -41 -20 -46 -14 -4 -20 -15 -20 -36 0 -22 5
-29 20 -29 18 0 20 -7 20 -59 0 -69 15 -118 40 -131 10 -6 39 -10 64 -10 44 0
46 1 46 29 0 24 -5 30 -30 35 -30 5 -30 6 -30 71 l0 65 30 0 c28 0 30 3 30 35
0 32 -2 35 -30 35 -28 0 -30 2 -30 40 l0 40 -45 0 -45 0 0 -39z"/>
<path d="M1010 1035 l0 -135 40 0 40 0 0 135 0 135 -40 0 -40 0 0 -135z"/>
<path d="M1670 1061 c0 -94 3 -112 21 -135 17 -22 28 -26 69 -26 27 0 60 4 74
10 17 6 26 6 26 0 0 -6 14 -10 30 -10 l30 0 0 135 0 135 -45 0 -45 0 0 -100
c0 -55 -4 -100 -9 -100 -5 0 -16 -3 -24 -6 -33 -12 -47 23 -47 117 l0 89 -40
0 -40 0 0 -109z"/>
</g>
</svg>
