<?xml version="1.0" standalone="no"?>
<!DOCTYPE svg PUBLIC "-//W3C//DTD SVG 20010904//EN"
 "http://www.w3.org/TR/2001/REC-SVG-20010904/DTD/svg10.dtd">
<svg version="1.0" xmlns="http://www.w3.org/2000/svg"
 width="353.000000pt" height="707.000000pt" viewBox="0 0 353.000000 707.000000"
 preserveAspectRatio="xMidYMid meet">

<g transform="translate(0.000000,707.000000) scale(0.100000,-0.100000)"
fill="#000000" stroke="none">
<path d="M0 4443 c0 -1444 2 -2624 4 -2622 2 2 23 60 46 129 82 240 106 294
153 341 24 24 54 61 66 82 41 67 130 162 164 173 9 3 17 9 17 15 0 10 84 54
141 74 33 12 37 12 32 -1 -7 -18 4 -18 23 1 19 18 44 20 44 3 1 -8 6 -6 14 4
7 10 24 22 37 27 l24 10 -25 1 c-22 1 -23 2 -7 11 30 18 48 4 37 -27 -8 -20
-7 -25 2 -21 7 2 13 18 13 35 0 26 5 34 29 42 32 11 46 6 46 -18 0 -9 5 -24
11 -32 8 -11 9 -5 4 23 -7 43 -6 44 85 51 47 3 58 2 41 -5 -13 -5 -22 -11 -20
-14 8 -7 49 7 49 16 0 5 9 9 21 9 11 0 18 -4 15 -9 -10 -16 19 -18 30 -2 8 10
30 16 66 17 30 1 69 5 86 9 31 6 32 5 32 -24 0 -21 5 -31 15 -31 12 0 13 5 5
26 -9 24 -8 26 9 21 22 -6 39 11 96 95 51 77 74 183 75 342 l0 119 -44 96
c-24 53 -47 113 -51 134 -7 34 -18 43 -48 38 -21 -3 -52 27 -112 107 -86 116
-108 161 -99 206 11 60 36 83 96 88 60 6 78 2 78 -18 0 -8 6 -11 15 -8 8 4 15
1 15 -5 0 -22 20 -11 20 12 1 12 7 36 14 52 l13 30 17 -54 c22 -74 39 -97 83
-112 41 -15 236 -19 291 -7 21 5 31 4 27 -2 -3 -6 0 -10 7 -10 15 0 68 100 88
163 22 70 89 76 110 10 16 -50 82 -173 93 -173 4 0 5 5 2 11 -5 7 7 8 41 2 27
-4 99 -8 159 -7 124 1 179 18 198 63 12 28 53 71 66 71 17 0 24 -36 26 -131 1
-53 6 -103 11 -112 9 -15 12 -15 42 3 18 11 37 31 42 44 11 31 30 37 53 18 26
-23 52 -4 52 38 0 63 -53 65 -125 5 -23 -19 -46 -35 -50 -35 -12 0 0 69 17
103 12 25 18 27 71 27 87 0 102 -15 102 -100 0 -62 -3 -73 -37 -121 -20 -30
-54 -80 -76 -112 -46 -68 -60 -77 -124 -77 l-48 -1 -47 -97 c-26 -53 -58 -115
-70 -137 -21 -37 -23 -54 -26 -244 -4 -203 -4 -203 20 -230 14 -14 32 -39 42
-54 9 -15 34 -35 54 -45 20 -9 48 -24 62 -33 31 -20 143 -59 170 -59 18 0 19
-3 10 -20 -6 -11 -17 -20 -25 -20 -20 0 -19 -13 3 -26 22 -14 59 12 54 39 -2
9 1 17 5 17 19 0 118 -32 131 -42 7 -6 27 -12 45 -13 17 -1 77 -16 132 -33 90
-29 173 -70 373 -185 35 -21 68 -37 73 -37 5 0 9 965 9 2370 l0 2370 -1765 0
-1765 0 0 -2627z m2123 205 c21 -27 33 -32 74 -34 26 -2 67 -6 90 -9 25 -4 44
-2 48 5 8 13 30 1 70 -37 16 -15 43 -35 60 -43 21 -11 34 -27 42 -55 22 -74
57 -284 50 -292 -3 -3 -39 3 -79 12 -40 9 -113 16 -163 16 -49 0 -106 3 -125
8 l-35 7 30 16 c47 25 131 39 191 32 47 -6 54 -5 54 11 0 10 -13 31 -30 46
-26 25 -38 29 -92 30 -35 1 -74 4 -88 8 -16 5 -38 2 -60 -8 -32 -15 -46 -25
-94 -69 -24 -22 -36 -55 -29 -80 4 -16 -2 -22 -30 -31 -19 -7 -55 -11 -79 -9
-42 3 -44 5 -46 36 -2 18 -7 44 -12 57 -11 29 -65 85 -83 86 -7 0 -21 2 -32 4
-140 25 -176 27 -210 11 -35 -17 -60 -48 -48 -60 3 -3 39 -6 78 -6 79 0 153
-25 178 -60 7 -10 25 -22 40 -25 40 -10 44 -26 5 -18 -18 3 -34 10 -36 15 -8
19 -269 5 -346 -18 -16 -5 -17 -2 -12 37 4 24 19 86 34 137 29 101 23 94 176
194 23 14 46 30 51 35 41 35 86 53 137 53 30 0 59 -5 66 -12 9 -9 12 -9 12 1
0 7 4 10 9 7 5 -4 11 -1 13 6 3 7 12 9 22 5 9 -4 14 -11 11 -17 -8 -13 -11
-13 65 14 86 32 94 31 123 -6z m112 -26 c-6 -7 -35 18 -35 31 0 5 9 2 20 -8
11 -10 18 -20 15 -23z m-462 -441 c17 -17 -4 -32 -48 -36 -51 -5 -69 -23 -55
-59 13 -34 7 -43 -25 -43 -19 0 -25 5 -25 21 0 36 -22 53 -77 60 -47 6 -53 4
-64 -15 -9 -17 -8 -23 2 -30 8 -5 17 -9 21 -9 4 0 18 -12 32 -27 20 -21 34
-27 73 -27 61 -1 136 23 129 41 -4 9 3 13 19 13 19 0 25 5 25 21 0 16 5 20 18
17 12 -3 24 2 31 14 14 23 31 15 31 -15 0 -14 -11 -29 -27 -39 -27 -17 -27
-17 -5 -18 27 0 29 -26 6 -87 -23 -60 -60 -75 -188 -77 -55 0 -122 3 -147 7
-44 7 -48 11 -69 59 -14 33 -20 60 -15 77 3 14 12 52 18 83 7 31 15 59 18 63
24 23 300 28 322 6z m567 9 c165 -20 179 -36 153 -162 -28 -136 -54 -153 -223
-152 -156 1 -199 29 -220 147 -7 37 -7 37 26 37 42 0 45 18 4 27 -36 7 -44 17
-36 47 4 18 18 26 68 39 61 16 96 23 128 26 9 0 54 -4 100 -9z m-1019 -83
c-13 -13 -15 11 -4 40 7 16 8 15 11 -6 2 -13 -1 -28 -7 -34z m1274 14 c3 -5 1
-12 -5 -16 -5 -3 -10 1 -10 9 0 18 6 21 15 7z m-892 -36 c4 -8 2 -17 -3 -20
-6 -4 -10 3 -10 14 0 25 6 27 13 6z m-123 -11 c0 -8 -4 -12 -10 -9 -5 3 -10
10 -10 16 0 5 5 9 10 9 6 0 10 -7 10 -16z m978 -6 c7 -10 3 -18 -16 -32 -23
-18 -25 -18 -19 -2 4 10 7 24 7 32 0 17 14 18 28 2z"/>
<path d="M2112 4148 c-19 -19 -14 -37 8 -31 22 6 24 11 12 30 -6 10 -11 10
-20 1z"/>
<path d="M2175 4126 c-11 -37 -10 -76 2 -76 7 0 13 -5 13 -10 0 -14 84 -50
116 -50 49 0 114 24 114 42 0 9 7 21 15 26 23 12 8 41 -24 48 -14 3 -37 9 -51
14 -41 14 -181 19 -185 6z m75 -73 c0 -24 -3 -33 -9 -25 -7 12 -4 62 5 62 2 0
4 -17 4 -37z m35 -23 c-3 -5 -10 -10 -16 -10 -5 0 -9 5 -9 10 0 6 7 10 16 10
8 0 12 -4 9 -10z"/>
<path d="M2125 4080 c-3 -5 -3 -15 1 -21 6 -11 23 6 24 24 0 10 -18 9 -25 -3z"/>
<path d="M1166 3924 c-17 -16 -22 -64 -7 -64 5 0 16 11 24 24 9 13 24 26 35
28 26 7 56 -44 57 -99 0 -23 4 -45 7 -49 11 -10 68 36 68 55 0 23 -57 84 -97
104 -40 21 -67 21 -87 1z"/>
<path d="M1855 3779 c-8 -11 -46 -28 -87 -38 -21 -4 -25 -10 -18 -20 7 -12 37
-16 131 -18 68 -1 145 -8 172 -15 45 -11 50 -11 63 6 15 21 7 30 -68 74 -30
19 -40 21 -61 11 -18 -8 -30 -8 -45 0 -26 14 -79 14 -87 0z"/>
<path d="M1250 3696 c0 -3 9 -10 20 -16 11 -6 20 -8 20 -6 0 3 -9 10 -20 16
-11 6 -20 8 -20 6z"/>
<path d="M1338 3693 c7 -3 16 -2 19 1 4 3 -2 6 -13 5 -11 0 -14 -3 -6 -6z"/>
<path d="M1752 3589 c-13 -5 -39 -11 -57 -13 -65 -8 -102 -46 -65 -66 28 -15
69 -12 125 9 44 16 63 17 150 9 68 -6 116 -17 150 -32 61 -29 106 -38 125 -26
12 8 11 13 -6 36 -11 15 -22 26 -24 24 -3 -1 -27 11 -54 29 -28 17 -59 31 -70
31 -19 -1 -20 -1 -3 -11 28 -16 11 -28 -29 -19 -20 5 -64 7 -100 5 -35 -2 -66
0 -69 5 -3 4 -15 6 -28 2 -20 -5 -21 -4 -8 11 11 14 11 17 0 16 -8 0 -25 -4
-37 -10z"/>
<path d="M1773 3444 c-6 -16 13 -44 32 -44 7 0 18 -7 25 -15 10 -12 31 -15 94
-13 79 3 81 4 84 29 4 32 -19 41 -90 39 -26 -1 -53 2 -59 6 -24 14 -80 14 -86
-2z"/>
<path d="M2245 3166 c-95 -47 -165 -102 -165 -129 0 -10 5 -14 15 -11 9 4 16
-3 21 -20 10 -41 43 -33 105 27 76 73 119 128 119 155 0 12 -1 22 -2 22 -2 0
-43 -20 -93 -44z"/>
<path d="M1775 3118 c-15 -22 -14 -24 7 -42 15 -13 19 -20 11 -23 -22 -8 -14
-30 18 -58 27 -22 39 -25 85 -23 44 2 55 7 63 26 6 12 17 22 26 22 8 0 15 5
15 11 0 8 -14 10 -42 7 -24 -3 -54 -2 -68 2 l-25 7 30 7 c53 13 57 16 53 33
-3 19 -87 53 -130 53 -17 0 -33 -9 -43 -22z m78 -75 c-7 -2 -19 -2 -25 0 -7 3
-2 5 12 5 14 0 19 -2 13 -5z"/>
<path d="M1441 2754 c0 -11 3 -14 6 -6 3 7 2 16 -1 19 -3 4 -6 -2 -5 -13z"/>
<path d="M1198 2733 c-19 -3 -28 -10 -28 -23 0 -26 15 -33 51 -25 23 5 29 12
27 28 -3 23 -11 26 -50 20z"/>
<path d="M934 2714 c3 -9 6 -18 6 -21 0 -3 7 0 15 7 17 14 11 30 -12 30 -10 0
-13 -6 -9 -16z"/>
<path d="M2460 2696 c0 -41 15 -54 29 -27 15 27 14 34 -9 49 -19 11 -20 10
-20 -22z"/>
<path d="M2572 2646 c13 -30 35 -40 35 -18 0 22 -16 42 -33 42 -11 0 -11 -5
-2 -24z"/>
<path d="M2460 2588 c0 -46 14 -49 35 -8 14 27 14 29 -1 23 -9 -3 -20 0 -25 8
-6 10 -9 2 -9 -23z"/>
<path d="M2830 2584 l-25 -14 32 0 c25 0 31 4 27 15 -4 8 -7 15 -8 14 0 -1
-12 -7 -26 -15z"/>
<path d="M2648 2578 c5 -5 16 -8 23 -6 8 3 3 7 -10 11 -17 4 -21 3 -13 -5z"/>
<path d="M1535 2508 c4 -18 12 -37 17 -43 7 -7 9 -2 4 15 -3 14 -6 33 -6 43 0
9 -5 17 -11 17 -7 0 -8 -12 -4 -32z"/>
<path d="M2905 2530 c-3 -6 1 -7 9 -4 18 7 21 14 7 14 -6 0 -13 -4 -16 -10z"/>
<path d="M1593 2290 c-35 -21 -38 -27 -25 -48 12 -18 94 26 90 47 -5 23 -29
24 -65 1z"/>
<path d="M3515 2240 c-3 -5 -1 -10 4 -10 6 0 11 5 11 10 0 6 -2 10 -4 10 -3 0
-8 -4 -11 -10z"/>
<path d="M1655 2225 c-16 -7 -42 -25 -57 -39 -25 -24 -26 -27 -13 -53 8 -16
15 -43 15 -61 0 -18 8 -49 19 -70 10 -20 22 -53 25 -72 13 -65 25 -86 52 -88
24 -2 26 1 22 28 -3 17 -1 30 3 30 15 0 22 62 8 71 -9 6 -10 12 -4 17 14 10
19 46 6 38 -14 -9 -51 11 -51 28 0 8 7 16 15 20 8 3 15 13 15 22 0 13 6 15 31
10 28 -5 30 -4 27 22 -2 20 -8 26 -22 24 -12 -2 -27 6 -38 20 -15 19 -18 20
-18 6 0 -10 -4 -18 -9 -18 -11 0 -9 40 3 59 12 19 4 21 -29 6z"/>
<path d="M1671 1673 c0 -134 -12 -270 -26 -305 -4 -10 -3 -18 3 -18 5 0 13 8
16 17 9 23 37 234 32 242 -2 3 0 46 4 96 8 87 5 104 -22 105 -4 0 -7 -62 -7
-137z"/>
<path d="M1517 1762 c-32 -35 -9 -112 33 -112 24 0 60 46 60 76 0 49 -61 72
-93 36z"/>
<path d="M1640 1313 c0 -16 -11 -54 -24 -86 -20 -47 -23 -70 -19 -120 6 -77
-15 -586 -27 -647 -9 -46 -23 -474 -15 -455 5 11 29 125 49 235 33 174 36 241
25 480 -7 150 -7 275 -2 345 7 77 6 112 -1 117 -8 5 -7 8 1 8 6 0 14 17 17 38
14 82 15 112 6 112 -6 0 -10 -12 -10 -27z"/>
<path d="M452 980 c0 -14 2 -19 5 -12 2 6 2 18 0 25 -3 6 -5 1 -5 -13z"/>
<path d="M1387 982 c-21 -23 -22 -85 -3 -101 11 -9 15 -9 19 1 4 8 6 7 6 -4 1
-18 17 -23 45 -12 11 4 16 19 16 43 0 28 3 33 11 21 10 -15 9 -6 -7 50 -7 26
-64 27 -87 2z"/>
<path d="M850 929 c-124 -24 -161 -29 -211 -29 -63 0 -66 -2 -102 -57 -34 -53
-34 -61 -1 -69 38 -10 226 3 309 21 39 8 95 18 125 22 l55 8 3 54 3 55 -21
-25 c-19 -22 -20 -22 -11 -2 6 12 11 24 11 27 0 9 -108 5 -160 -5z"/>
<path d="M449 894 c-16 -20 -18 -89 -2 -105 6 -6 20 -8 32 -4 21 6 36 52 29
96 -4 29 -39 37 -59 13z"/>
<path d="M1345 45 c-38 -37 -32 -45 40 -45 72 0 78 8 40 45 -31 31 -49 31 -80
0z"/>
<path d="M2785 10 c-3 -5 -1 -10 4 -10 6 0 11 5 11 10 0 6 -2 10 -4 10 -3 0
-8 -4 -11 -10z"/>
</g>
</svg>
